<?xml version="1.0" encoding="UTF-8" standalone="no"?>
<!-- Created with Inkscape (http://www.inkscape.org/) -->

<svg
   xmlns:dc="http://purl.org/dc/elements/1.1/"
   xmlns:cc="http://creativecommons.org/ns#"
   xmlns:rdf="http://www.w3.org/1999/02/22-rdf-syntax-ns#"
   xmlns:svg="http://www.w3.org/2000/svg"
   xmlns="http://www.w3.org/2000/svg"
   xmlns:sodipodi="http://sodipodi.sourceforge.net/DTD/sodipodi-0.dtd"
   xmlns:inkscape="http://www.inkscape.org/namespaces/inkscape"
   id="svg3160"
   version="1.1"
   inkscape:version="0.48.5 r10040"
   width="300"
   height="300"
   sodipodi:docname="TV Wasserlos Wappen Vektor.svg">
  <metadata
     id="metadata3166">
    <rdf:RDF>
      <cc:Work
         rdf:about="">
        <dc:format>image/svg+xml</dc:format>
        <dc:type
           rdf:resource="http://purl.org/dc/dcmitype/StillImage" />
      </cc:Work>
    </rdf:RDF>
  </metadata>
  <defs
     id="defs3164" />
  <sodipodi:namedview
     pagecolor="#ffffff"
     bordercolor="#666666"
     borderopacity="1"
     objecttolerance="10"
     gridtolerance="10"
     guidetolerance="10"
     inkscape:pageopacity="0"
     inkscape:pageshadow="2"
     inkscape:window-width="1265"
     inkscape:window-height="831"
     id="namedview3162"
     showgrid="false"
     inkscape:zoom="0.6"
     inkscape:cx="405.67766"
     inkscape:cy="481.86813"
     inkscape:window-x="0"
     inkscape:window-y="0"
     inkscape:window-maximized="0"
     inkscape:current-layer="svg3160"
     width="300px" />
  <path
     style="fill:none;stroke:#ff0000;stroke-width:4.89174938;stroke-miterlimit:4;stroke-opacity:1;stroke-dasharray:none"
     d="M 68.228474,3.0514774 19.945875,47.848487 c 0,0 40.909711,42.89232 22.461438,96.103263 -15.994536,46.13355 -1.552369,78.30613 15.660679,95.5813 24.769385,24.85877 30.761953,17.64017 63.753618,33.83567 26.40412,12.9617 28.1784,21.5542 28.1784,21.5542 0,0 1.77428,-8.5925 28.17839,-21.5542 32.99167,-16.1955 38.98423,-8.9769 63.75361,-33.83567 17.21305,-17.27517 31.65521,-49.44775 15.66069,-95.5813 -18.44827,-53.210943 22.46143,-96.103263 22.46143,-96.103263 L 231.77153,3.0514774 c 0,0 -13.76076,8.5341196 -37.1738,13.4790196 -23.0438,4.86691 -44.59772,4.66699 -44.59772,4.66699 0,0 -21.55393,0.19992 -44.59773,-4.66699 C 81.989238,11.585597 68.228474,3.0514774 68.228474,3.0514774 z"
     id="path3170"
     inkscape:connector-curvature="0"
     sodipodi:nodetypes="ccssscsssccscsc" />
  <path
     style="fill:#ff0000;fill-opacity:1;stroke:none"
     d="m 105.83334,40.840207 0,14.72222 36.80555,0 0,79.500003 14.72222,0 0,-79.500003 36.80555,0 0,-14.72222 z"
     id="path3943"
     inkscape:connector-curvature="0"
     sodipodi:nodetypes="ccccccccc" />
  <path
     style="fill:#ff0000;fill-opacity:1;stroke:none"
     d="m 193.18519,77.229097 19.62963,0 L 150,192.06243 87.185188,77.229097 l 19.629622,0 L 150,157.71057 z"
     id="path3967"
     inkscape:connector-curvature="0"
     sodipodi:nodetypes="ccccccc" />
  <path
     style="fill:#ff0000;fill-opacity:1;stroke:none"
     d="M 60.685188,133.09946 133.31481,243.02538 150,225.35873 l 16.68518,17.66665 72.62963,-109.92592 -19.62963,0 L 165.7037,213.58095 150,195.91428 134.2963,213.58095 80.314817,133.09946 z"
     id="path3969"
     inkscape:connector-curvature="0"
     sodipodi:nodetypes="ccccccccccc" />
  <text
     xml:space="preserve"
     style="font-size:39.46450043px;font-style:normal;font-weight:normal;line-height:125%;letter-spacing:0px;word-spacing:0px;fill:#ff0000;fill-opacity:1;stroke:none;font-family:Sans"
     x="59.288597"
     y="226.60594"
     id="text3971"
     sodipodi:linespacing="125%"
     transform="scale(1.007591,0.99246618)"><tspan
       sodipodi:role="line"
       id="tspan3973"
       x="59.288597"
       y="226.60594"
       style="font-size:36.50465775px;font-style:normal;font-variant:normal;font-weight:bold;font-stretch:normal;fill:#ff0000;fill-opacity:1;stroke:none;font-family:Arial;-inkscape-font-specification:Arial Bold">19</tspan></text>
  <text
     xml:space="preserve"
     style="font-size:37.23888397px;font-style:normal;font-weight:normal;line-height:125%;letter-spacing:0px;word-spacing:0px;fill:#ff0000;fill-opacity:1;stroke:none;font-family:Sans"
     x="194.15546"
     y="231.02733"
     id="text3975"
     sodipodi:linespacing="125%"
     transform="scale(1.0271708,0.97354793)"><tspan
       sodipodi:role="line"
       id="tspan3977"
       x="194.15546"
       y="231.02733"
       style="font-style:normal;font-variant:normal;font-weight:bold;font-stretch:normal;fill:#ff0000;fill-opacity:1;stroke:none;font-family:Arial;-inkscape-font-specification:Arial Bold">07</tspan></text>
</svg>
