<?xml version="1.0" encoding="UTF-8" standalone="no"?>
<!-- Created with Inkscape (http://www.inkscape.org/) -->

<svg
   xmlns:dc="http://purl.org/dc/elements/1.1/"
   xmlns:cc="http://creativecommons.org/ns#"
   xmlns:rdf="http://www.w3.org/1999/02/22-rdf-syntax-ns#"
   xmlns:svg="http://www.w3.org/2000/svg"
   xmlns="http://www.w3.org/2000/svg"
   xmlns:sodipodi="http://sodipodi.sourceforge.net/DTD/sodipodi-0.dtd"
   xmlns:inkscape="http://www.inkscape.org/namespaces/inkscape"
   width="7086.6138"
   height="5314.9604"
   id="svg2989"
   version="1.1"
   inkscape:version="0.48.5 r10040"
   sodipodi:docname="Neues Dokument 1">
  <defs
     id="defs3" />
  <sodipodi:namedview
     inkscape:document-units="mm"
     id="base"
     pagecolor="#ffffff"
     bordercolor="#666666"
     borderopacity="1.0"
     inkscape:pageopacity="0.0"
     inkscape:pageshadow="2"
     inkscape:zoom="0.069644045"
     inkscape:cx="2801.1438"
     inkscape:cy="3867.5523"
     inkscape:current-layer="layer1"
     showgrid="false"
     units="cm"
     inkscape:window-width="1436"
     inkscape:window-height="855"
     inkscape:window-x="4"
     inkscape:window-y="0"
     inkscape:window-maximized="1" />
  <metadata
     id="metadata4">
    <rdf:RDF>
      <cc:Work
         rdf:about="">
        <dc:format>image/svg+xml</dc:format>
        <dc:type
           rdf:resource="http://purl.org/dc/dcmitype/StillImage" />
        <dc:title></dc:title>
      </cc:Work>
    </rdf:RDF>
  </metadata>
  <g
     inkscape:label="Layer 1"
     inkscape:groupmode="layer"
     id="layer1"
     transform="translate(0,4262.5981)">
    <rect
       style="fill:#ff0000;fill-opacity:1;stroke:#ff0000;stroke-width:5.11041355;stroke-miterlimit:4;stroke-opacity:1;stroke-dasharray:none"
       id="rect3071"
       width="3538.1968"
       height="2652.3699"
       x="2.5552068"
       y="-4260.043" />
    <rect
       y="-1602.5627"
       x="3545.8623"
       height="2652.3699"
       width="3538.1968"
       id="rect3073"
       style="fill:#ff0000;fill-opacity:1;stroke:#ff0000;stroke-width:5.11041355;stroke-miterlimit:4;stroke-opacity:1;stroke-dasharray:none" />
    <path
       style="font-size:medium;font-style:normal;font-variant:normal;font-weight:normal;font-stretch:normal;text-indent:0;text-align:start;text-decoration:none;line-height:normal;letter-spacing:normal;word-spacing:normal;text-transform:none;direction:ltr;block-progression:tb;writing-mode:lr-tb;text-anchor:start;baseline-shift:baseline;color:#000000;fill:#ff0000;fill-opacity:1;stroke:#ffffff;stroke-width:106.2992126;marker:none;visibility:visible;display:inline;overflow:visible;enable-background:accumulate;font-family:Sans;-inkscape-font-specification:Sans;stroke-opacity:1;stroke-miterlimit:4;stroke-dasharray:none"
       d="m 2563.4375,-3384.125 -16.3437,15.1562 -576.4688,534.875 -21.7188,20.125 20.4376,21.4376 c 0,0 476.0202,499.6021 261.7187,1117.7187 -194.131,559.9384 -18.646,958.08681 193.9063,1171.40625 149.7,150.2403 247.2812,206.71807 354.0624,247.46875 106.7813,40.75068 220.1796,66.50364 414.9688,162.125 155.5714,76.369511 236.9881,139.218644 278.5938,181.09375 20.8028,20.93755 31.6727,36.60749 37.1562,46.15625 5.4835,9.54876 4.9688,9.8125 4.9688,9.8125 l 57.1874,0 c 0,0 -0.5147,-0.26374 4.9688,-9.8125 5.4835,-9.54876 16.3535,-25.2187 37.1562,-46.15625 41.6056,-41.875101 123.0225,-104.72424 278.5938,-181.09375 194.7892,-95.62136 308.1875,-121.37432 414.9688,-162.125 106.7812,-40.75068 204.3624,-97.22845 354.0624,-247.46875 212.5524,-213.31945 388.0059,-611.46785 193.875,-1171.40625 -214.3014,-618.1166 261.75,-1117.7187 261.75,-1117.7187 l 20.4063,-21.4376 -21.6875,-20.125 -576.5,-534.875 -16.3125,-15.1562 -18.9375,11.75 c 0,0 -159.3351,99.0407 -434.5,157.1562 -271.3789,57.316 -526.1875,55.0938 -526.1875,55.0938 l -0.25,0 -0.2813,0 c 0,0 -254.8086,2.2222 -526.1874,-55.0938 -275.1649,-58.1155 -434.5001,-157.1562 -434.5,-157.1562 l -18.9063,-11.75 z m 7.75,72.5 c 50.2904,27.7647 203.2964,104.9231 433.5937,153.5625 277.3153,58.5698 535.3212,56.3705 538.25,56.3437 0.017,-10e-5 0.5313,0 0.5313,0 2.9211,0.027 260.9617,2.2269 538.2813,-56.3437 230.2973,-48.6394 383.3034,-125.7978 433.5937,-153.5625 l 539.9063,500.9375 c -89.8055,105.1954 -454.2714,580.2352 -255,1155 187.8133,541.7166 18.4275,911.85617 -180.0626,1111.0625 -146.0425,146.56961 -232.1228,195.42474 -333.5312,234.125 -101.4084,38.70026 -220.7487,66.49957 -419.875,164.25 -159.6897,78.391206 -246.4793,144.2321053 -294.2812,192.34375 -12.1096,12.188027 -21.6702,23.260402 -29.2813,33.09375 -7.613,-9.837193 -17.1654,-20.899373 -29.2813,-33.09375 -47.802,-48.1116402 -134.6227,-113.952545 -294.3124,-192.34375 -199.1263,-97.75043 -318.4666,-125.54974 -419.875,-164.25 -101.4085,-38.70026 -187.4574,-87.55539 -333.5,-234.125 -198.49,-199.20634 -367.9074,-569.3459 -180.0938,-1111.0625 199.2726,-574.7681 -165.1972,-1049.8083 -255,-1155 l 539.9375,-500.9375 z"
       id="path3934"
       inkscape:connector-curvature="0" />
    <path
       sodipodi:nodetypes="ccssscsssccscsc"
       inkscape:connector-curvature="0"
       id="path3923"
       d="m 2566.9673,-3347.568 -576.4868,534.8694 c 0,0 488.4557,512.1278 268.1861,1147.4583 -190.9723,550.8275 -18.535,934.96318 186.9861,1141.22607 295.7427,296.80991 367.2931,210.62093 761.2085,403.99272 315.2611,154.760716 336.4458,257.35385 336.4458,257.35385 0,0 21.1846,-102.593134 336.4456,-257.35385 393.9155,-193.37179 465.4658,-107.18281 761.2084,-403.99272 205.5212,-206.26289 377.9583,-590.39857 186.9862,-1141.22607 -220.2695,-635.3305 268.1861,-1147.4583 268.1861,-1147.4583 l -576.4869,-534.8694 c 0,0 -164.3014,101.8961 -443.8495,160.9374 -275.1394,58.1102 -532.4899,55.7232 -532.4899,55.7232 0,0 -257.3507,2.387 -532.4901,-55.7232 -279.5481,-59.0413 -443.8496,-160.9374 -443.8496,-160.9374 z"
       style="fill:#ffffff;stroke:none;stroke-width:58.40673827999999901;stroke-miterlimit:4;stroke-opacity:1;stroke-dasharray:none;fill-opacity:1" />
    <path
       style="fill:none;stroke:#ff0000;stroke-width:58.40673828;stroke-miterlimit:4;stroke-opacity:1;stroke-dasharray:none"
       d="m 2566.9673,-3347.568 -576.4868,534.8694 c 0,0 488.4557,512.1278 268.1861,1147.4583 -190.9723,550.8275 -18.535,934.96318 186.9861,1141.22607 295.7427,296.80991 367.2931,210.62093 761.2085,403.99272 315.2611,154.760716 336.4458,257.35385 336.4458,257.35385 0,0 21.1846,-102.593134 336.4456,-257.35385 393.9155,-193.37179 465.4658,-107.18281 761.2084,-403.99272 205.5212,-206.26289 377.9583,-590.39857 186.9862,-1141.22607 -220.2695,-635.3305 268.1861,-1147.4583 268.1861,-1147.4583 l -576.4869,-534.8694 c 0,0 -164.3014,101.8961 -443.8495,160.9374 -275.1394,58.1102 -532.4899,55.7232 -532.4899,55.7232 0,0 -257.3507,2.387 -532.4901,-55.7232 -279.5481,-59.0413 -443.8496,-160.9374 -443.8496,-160.9374 z"
       id="path3170"
       inkscape:connector-curvature="0"
       sodipodi:nodetypes="ccssscsssccscsc" />
    <g
       id="g3925">
      <path
         sodipodi:nodetypes="ccccccccc"
         inkscape:connector-curvature="0"
         id="path3943"
         d="m 3015.9637,-2896.3764 0,175.7811 439.4526,0 0,949.2178 175.7811,0 0,-949.2178 439.4526,0 0,-175.7811 z"
         style="fill:#ff0000;fill-opacity:1;stroke:none" />
      <path
         sodipodi:nodetypes="ccccccc"
         inkscape:connector-curvature="0"
         id="path3967"
         d="m 4058.9314,-2461.8986 234.3748,0 -749.9993,1371.0924 -749.9993,-1371.0924 234.3747,0 515.6246,960.9365 z"
         style="fill:#ff0000;fill-opacity:1;stroke:none" />
      <path
         sodipodi:nodetypes="ccccccccccc"
         inkscape:connector-curvature="0"
         id="path3969"
         d="m 2476.9017,-1794.815 867.1865,1312.49865 199.2187,-210.93709 199.2184,210.93709 867.1867,-1312.49865 -234.3748,0 -644.5306,960.93667 -187.4997,-210.93737 -187.4998,210.93737 -644.5307,-960.93667 z"
         style="fill:#ff0000;fill-opacity:1;stroke:none" />
      <text
         transform="scale(1.007591,0.99246619)"
         sodipodi:linespacing="125%"
         id="text3971"
         y="-704.04999"
         x="2447.0249"
         style="font-size:471.20007324px;font-style:normal;font-weight:normal;line-height:125%;letter-spacing:0px;word-spacing:0px;fill:#ff0000;fill-opacity:1;stroke:none;font-family:Sans"
         xml:space="preserve"><tspan
           style="font-size:435.86001587px;font-style:normal;font-variant:normal;font-weight:bold;font-stretch:normal;fill:#ff0000;fill-opacity:1;stroke:none;font-family:Arial;-inkscape-font-specification:Arial Bold"
           y="-704.04999"
           x="2447.0249"
           id="tspan3973"
           sodipodi:role="line">19</tspan></text>
      <text
         transform="scale(1.0271708,0.97354792)"
         sodipodi:linespacing="125%"
         id="text3975"
         y="-717.51733"
         x="4024.1633"
         style="font-size:444.6265564px;font-style:normal;font-weight:normal;line-height:125%;letter-spacing:0px;word-spacing:0px;fill:#ff0000;fill-opacity:1;stroke:none;font-family:Sans"
         xml:space="preserve"><tspan
           style="font-style:normal;font-variant:normal;font-weight:bold;font-stretch:normal;fill:#ff0000;fill-opacity:1;stroke:none;font-family:Arial;-inkscape-font-specification:Arial Bold"
           y="-717.51733"
           x="4024.1633"
           id="tspan3977"
           sodipodi:role="line">07</tspan></text>
    </g>
  </g>
</svg>
