<?xml version="1.0" encoding="UTF-8" standalone="no"?>
<!-- Created with Inkscape (http://www.inkscape.org/) -->

<svg
   xmlns:dc="http://purl.org/dc/elements/1.1/"
   xmlns:cc="http://creativecommons.org/ns#"
   xmlns:rdf="http://www.w3.org/1999/02/22-rdf-syntax-ns#"
   xmlns:svg="http://www.w3.org/2000/svg"
   xmlns="http://www.w3.org/2000/svg"
   xmlns:sodipodi="http://sodipodi.sourceforge.net/DTD/sodipodi-0.dtd"
   xmlns:inkscape="http://www.inkscape.org/namespaces/inkscape"
   id="svg3160"
   version="1.1"
   inkscape:version="0.48.5 r10040"
   width="300"
   height="300"
   sodipodi:docname="TV Wasserlos Wappen Vektor.svg">
  <metadata
     id="metadata3166">
    <rdf:RDF>
      <cc:Work
         rdf:about="">
        <dc:format>image/svg+xml</dc:format>
        <dc:type
           rdf:resource="http://purl.org/dc/dcmitype/StillImage" />
      </cc:Work>
    </rdf:RDF>
  </metadata>
  <defs
     id="defs3164" />
  <sodipodi:namedview
     pagecolor="#ffffff"
     bordercolor="#666666"
     borderopacity="1"
     objecttolerance="10"
     gridtolerance="10"
     guidetolerance="10"
     inkscape:pageopacity="0"
     inkscape:pageshadow="2"
     inkscape:window-width="1265"
     inkscape:window-height="831"
     id="namedview3162"
     showgrid="false"
     inkscape:zoom="10.792759"
     inkscape:cx="176.50171"
     inkscape:cy="15.204116"
     inkscape:window-x="0"
     inkscape:window-y="0"
     inkscape:window-maximized="0"
     inkscape:current-layer="svg3160"
     width="300px" />
  <path
     style="font-size:medium;font-style:normal;font-variant:normal;font-weight:normal;font-stretch:normal;text-indent:0;text-align:start;text-decoration:none;line-height:normal;letter-spacing:normal;word-spacing:normal;text-transform:none;direction:ltr;block-progression:tb;writing-mode:lr-tb;text-anchor:start;baseline-shift:baseline;color:#000000;fill:#ff0000;fill-opacity:1;stroke:none;stroke-width:4.89174938;marker:none;visibility:visible;display:inline;overflow:visible;enable-background:accumulate;font-family:Sans;-inkscape-font-specification:Sans"
     d="m 67.9375,0 -1.375,1.25 -48.28125,44.8125 -1.8125,1.6875 1.71875,1.78125 c 0,0 39.854678,41.855775 21.90625,93.625 -16.259091,46.89661 -1.551932,80.22757 16.25,98.09375 C 68.881605,253.8331 77.056731,258.587 86,262 c 8.943269,3.413 18.43579,5.55391 34.75,13.5625 13.0296,6.39619 19.8279,11.64908 23.3125,15.15625 1.7423,1.75359 2.66574,3.07526 3.125,3.875 C 147.74676,295.43946 150,300 150,300 c 0,0 2.35325,-4.60655 2.8125,-5.40625 0.45926,-0.79974 1.3827,-2.12141 3.125,-3.875 3.4846,-3.50717 10.28291,-8.76006 23.3125,-15.15625 C 195.56421,267.55391 205.05673,265.413 214,262 c 8.94327,-3.413 17.1184,-8.1669 29.65625,-20.75 17.80193,-17.86618 32.50907,-51.19714 16.25,-98.09375 -17.94843,-51.769225 21.90625,-93.625 21.90625,-93.625 L 283.53125,47.75 281.71875,46.0625 233.4375,1.25 232.0625,0 230.46875,0.96875 c 0,0 -13.32907,8.2888845 -36.375,13.15625 -22.72884,4.80039 -44.0625,4.625 -44.0625,4.625 l -0.0312,0 -0.0312,0 c 0,0 -21.33366,0.17539 -44.0625,-4.625 C 82.860317,9.2576345 69.53125,0.96875 69.53125,0.96875 z m 0.65625,6.0625 c 3.705641,2.0850891 16.328208,8.654262 36.3125,12.875 23.30599,4.922285 44.96448,4.719686 45.0625,4.71875 2.2e-4,-2e-6 0.0625,0 0.0625,0 0.098,9.36e-4 21.75651,0.203535 45.0625,-4.71875 19.98429,-4.220738 32.60686,-10.7899109 36.3125,-12.875 l 45.3125,42.03125 c -4.54887,5.038701 -39.19846,45.427733 -21.4375,96.65625 15.72997,45.37049 1.53042,76.37834 -15.09375,93.0625 -12.23153,12.27567 -19.41297,16.35248 -27.90625,19.59375 -8.49328,3.24127 -18.51004,5.59434 -35.1875,13.78125 -13.37452,6.56551 -20.65268,12.06425 -24.65625,16.09375 -1.25817,1.26632 -1.74309,2.10261 -2.4375,3.0625 -0.69441,-0.95989 -1.17933,-1.79618 -2.4375,-3.0625 -4.00357,-4.0295 -11.28173,-9.52824 -24.65625,-16.09375 C 106.22879,263.00059 96.212028,260.64752 87.71875,257.40625 79.225472,254.16498 72.04403,250.08817 59.8125,237.8125 43.188336,221.12834 28.988769,190.12049 44.71875,144.75 62.479714,93.521483 27.830122,53.132451 23.28125,48.09375 z"
     id="path3170"
     inkscape:connector-curvature="0"
     sodipodi:nodetypes="cccccssssscccsssssccccccscccscccsccsccssssscssssscc" />
  <path
     style="fill:#ff0000;fill-opacity:1;stroke:none"
     d="m 105.83334,40.840207 0,14.72222 36.80555,0 0,79.500003 14.72222,0 0,-79.500003 36.80555,0 0,-14.72222 z"
     id="path3943"
     inkscape:connector-curvature="0"
     sodipodi:nodetypes="ccccccccc" />
  <path
     style="fill:#ff0000;fill-opacity:1;stroke:none"
     d="m 193.18519,77.229097 19.62963,0 L 150,192.06243 87.185188,77.229097 l 19.629622,0 L 150,157.71057 z"
     id="path3967"
     inkscape:connector-curvature="0"
     sodipodi:nodetypes="ccccccc" />
  <path
     style="fill:#ff0000;fill-opacity:1;stroke:none"
     d="M 60.685188,133.09946 133.31481,243.02538 150,225.35873 l 16.68518,17.66665 72.62963,-109.92592 -19.62963,0 L 165.7037,213.58095 150,195.91428 134.2963,213.58095 80.314817,133.09946 z"
     id="path3969"
     inkscape:connector-curvature="0"
     sodipodi:nodetypes="ccccccccccc" />
  <g
     transform="scale(1.007591,0.99246618)"
     style="font-size:39.46450043px;font-style:normal;font-weight:normal;line-height:125%;letter-spacing:0px;word-spacing:0px;fill:#ff0000;fill-opacity:1;stroke:none;font-family:Sans"
     id="text3971">
    <path
       d="m 73.655176,226.60594 -5.008695,0 0,-18.87619 c -1.829994,1.71118 -3.986761,2.97672 -6.470308,3.79663 l 0,-4.54526 c 1.307128,-0.42777 2.727149,-1.23581 4.260065,-2.42413 1.532901,-1.20017 2.584548,-2.59642 3.154943,-4.18877 l 4.063995,0 0,26.23772"
       style="font-size:36.50465775px;font-variant:normal;font-weight:bold;font-stretch:normal;fill:#ff0000;font-family:Arial;-inkscape-font-specification:Arial Bold"
       id="path2990" />
    <path
       d="m 81.266254,220.56342 4.848275,-0.53473 c 0.118824,0.98629 0.427782,1.7171 0.926876,2.19241 0.499079,0.47533 1.158587,0.71299 1.978524,0.71299 1.033813,0 1.913156,-0.47532 2.638032,-1.42597 0.724852,-0.95063 1.188289,-2.92321 1.390314,-5.91774 -1.259613,1.46162 -2.834112,2.19242 -4.723503,2.19241 -2.05577,1e-5 -3.832281,-0.79021 -5.329537,-2.37066 -1.485381,-1.59231 -2.228069,-3.65996 -2.228068,-6.20294 -10e-7,-2.64989 0.784278,-4.7829 2.352839,-6.39901 1.580438,-1.62795 3.588667,-2.44193 6.024695,-2.44196 2.649903,3e-5 4.824494,1.02791 6.523781,3.08364 1.699256,2.04391 2.548891,5.41274 2.54891,10.10652 -1.9e-5,4.77698 -0.885304,8.22306 -2.655857,10.33823 -1.770585,2.11518 -4.07589,3.17277 -6.915921,3.17277 -2.043888,0 -3.695627,-0.54068 -4.955222,-1.62203 -1.259604,-1.09324 -2.067649,-2.72121 -2.424138,-4.88393 m 11.336408,-10.94426 c -1.3e-5,-1.61608 -0.374328,-2.86974 -1.122946,-3.76098 -0.736759,-0.89121 -1.592336,-1.33682 -2.566734,-1.33684 -0.926885,2e-5 -1.699281,0.36839 -2.31719,1.10512 -0.606041,0.72488 -0.909058,1.91913 -0.909052,3.58273 -6e-6,1.68741 0.332718,2.92918 0.998174,3.72533 0.665442,0.78429 1.497253,1.17643 2.495436,1.17642 0.962515,1e-5 1.77056,-0.38024 2.424137,-1.14077 0.665437,-0.7605 0.998162,-1.8775 0.998175,-3.35101"
       style="font-size:36.50465775px;font-variant:normal;font-weight:bold;font-stretch:normal;fill:#ff0000;font-family:Arial;-inkscape-font-specification:Arial Bold"
       id="path2992" />
  </g>
  <g
     transform="scale(1.0271708,0.97354793)"
     style="font-size:37.23888397px;font-style:normal;font-weight:normal;line-height:125%;letter-spacing:0px;word-spacing:0px;fill:#ff0000;fill-opacity:1;stroke:none;font-family:Sans"
     id="text3975">
    <path
       d="m 204.37433,204.26188 c 2.58198,3e-5 4.6003,0.9213 6.05496,2.76382 1.73343,2.18199 2.60015,5.80041 2.60017,10.85528 -2e-5,5.04278 -0.8728,8.66726 -2.61836,10.87347 -1.44253,1.8183 -3.45479,2.72745 -6.03677,2.72745 -2.59412,0 -4.68517,-0.994 -6.27315,-2.98202 -1.58799,-2.00013 -2.38198,-5.55794 -2.38198,-10.67344 0,-5.01851 0.87278,-8.63087 2.61836,-10.8371 1.44251,-1.81828 3.45477,-2.72743 6.03677,-2.72746 m 0,4.23665 c -0.61823,2e-5 -1.16979,0.20004 -1.65466,0.60004 -0.48489,0.38793 -0.86067,1.09101 -1.12735,2.10924 -0.35154,1.32132 -0.52731,3.54571 -0.5273,6.67317 -1e-5,3.1275 0.15757,5.27916 0.47275,6.45499 0.31517,1.16372 0.70914,1.93953 1.1819,2.32743 0.48487,0.38791 1.03643,0.58186 1.65466,0.58185 0.61821,1e-5 1.16976,-0.19394 1.65466,-0.58185 0.48487,-0.40003 0.86065,-1.10916 1.12735,-2.12742 0.35152,-1.30917 0.52729,-3.5275 0.5273,-6.655 -1e-5,-3.12746 -0.15759,-5.27306 -0.47275,-6.4368 -0.31519,-1.17581 -0.71522,-1.95768 -1.20009,-2.34561 -0.47277,-0.4 -1.01826,-0.60002 -1.63647,-0.60004"
       style="font-variant:normal;font-weight:bold;font-stretch:normal;fill:#ff0000;font-family:Arial;-inkscape-font-specification:Arial Bold"
       id="path2995" />
    <path
       d="m 216.46606,209.48042 0,-4.74578 17.47391,0 0,3.70934 c -1.44254,1.4183 -2.90931,3.4548 -4.4003,6.10951 -1.49102,2.65474 -2.63049,5.47917 -3.41841,8.4733 -0.77582,2.98202 -1.15767,5.64887 -1.14554,8.00054 l -4.9276,0 c 0.0848,-3.6851 0.84247,-7.44292 2.27288,-11.27349 1.44251,-3.83055 3.36385,-7.25502 5.76403,-10.27342 l -11.61897,0"
       style="font-variant:normal;font-weight:bold;font-stretch:normal;fill:#ff0000;font-family:Arial;-inkscape-font-specification:Arial Bold"
       id="path2997" />
  </g>
</svg>
