<?xml version="1.0" encoding="UTF-8" standalone="no"?>
<!-- Created with Inkscape (http://www.inkscape.org/) -->

<svg
   xmlns:dc="http://purl.org/dc/elements/1.1/"
   xmlns:cc="http://creativecommons.org/ns#"
   xmlns:rdf="http://www.w3.org/1999/02/22-rdf-syntax-ns#"
   xmlns:svg="http://www.w3.org/2000/svg"
   xmlns="http://www.w3.org/2000/svg"
   xmlns:sodipodi="http://sodipodi.sourceforge.net/DTD/sodipodi-0.dtd"
   xmlns:inkscape="http://www.inkscape.org/namespaces/inkscape"
   width="7086.6138"
   height="5314.9604"
   id="svg2989"
   version="1.1"
   inkscape:version="0.48.5 r10040"
   sodipodi:docname="TV Wasserlos Fahne Vektor.svg"
   inkscape:export-filename="/Users/Toby/Desktop/TV Wasserlos Fahne Vektor.png"
   inkscape:export-xdpi="12.699981"
   inkscape:export-ydpi="12.699981">
  <defs
     id="defs3" />
  <sodipodi:namedview
     inkscape:document-units="mm"
     id="base"
     pagecolor="#ffffff"
     bordercolor="#666666"
     borderopacity="1.0"
     inkscape:pageopacity="0.0"
     inkscape:pageshadow="2"
     inkscape:zoom="0.093303299"
     inkscape:cx="2772.2998"
     inkscape:cy="3174.8018"
     inkscape:current-layer="layer1"
     showgrid="false"
     units="cm"
     inkscape:window-width="1436"
     inkscape:window-height="855"
     inkscape:window-x="4"
     inkscape:window-y="0"
     inkscape:window-maximized="1" />
  <metadata
     id="metadata4">
    <rdf:RDF>
      <cc:Work
         rdf:about="">
        <dc:format>image/svg+xml</dc:format>
        <dc:type
           rdf:resource="http://purl.org/dc/dcmitype/StillImage" />
        <dc:title />
      </cc:Work>
    </rdf:RDF>
  </metadata>
  <g
     inkscape:label="Layer 1"
     inkscape:groupmode="layer"
     id="layer1"
     transform="translate(0,4262.5981)">
    <rect
       style="fill:#ff0000;fill-opacity:1;stroke:#ff0000;stroke-width:10.2208271;stroke-miterlimit:4;stroke-opacity:1;stroke-dasharray:none"
       id="rect3071"
       width="7076.3931"
       height="5304.7397"
       x="5.1104136"
       y="-4257.4878" />
    <path
       sodipodi:nodetypes="ccssscsssccscsc"
       inkscape:connector-curvature="0"
       id="path3923"
       d="m 2440.9341,-3555.2196 -650.9107,603.9204 c 0,0 551.5147,578.2438 302.8083,1295.5941 -215.6263,621.9387 -20.9275,1055.66655 211.1262,1288.55774 333.9228,335.127805 414.7103,237.81192 859.4799,456.147805 355.9609,174.740195 379.8806,290.578005 379.8806,290.578005 0,0 23.9191,-115.83781 379.8803,-290.578005 444.7697,-218.335885 525.557,-121.02 859.4798,-456.147805 232.0536,-232.89119 426.752,-666.61904 211.1257,-1288.55774 -248.7061,-717.3503 302.8086,-1295.5941 302.8086,-1295.5941 l -650.9105,-603.9204 c 0,0 -185.5124,115.0515 -501.1503,181.714 -310.6596,65.6131 -601.2336,62.9174 -601.2336,62.9174 0,0 -290.5745,2.6957 -601.2343,-62.9174 -315.6374,-66.6625 -501.15,-181.714 -501.15,-181.714 z"
       style="fill:#ffffff;fill-opacity:1;stroke:none" />
    <path
       sodipodi:nodetypes="ccssscsssccscsc"
       inkscape:connector-curvature="0"
       id="path3775"
       d="m 2440.9341,-3555.2196 -650.9107,603.9204 c 0,0 551.5147,578.2438 302.8083,1295.5941 -215.6263,621.9387 -20.9275,1055.66655 211.1262,1288.55774 333.9228,335.127805 414.7103,237.81192 859.4799,456.147805 355.9609,174.740195 379.8806,290.578005 379.8806,290.578005 0,0 23.9191,-115.83781 379.8803,-290.578005 444.7697,-218.335885 525.557,-121.02 859.4798,-456.147805 232.0536,-232.89119 426.752,-666.61904 211.1257,-1288.55774 -248.7061,-717.3503 302.8086,-1295.5941 302.8086,-1295.5941 l -650.9105,-603.9204 c 0,0 -185.5124,115.0515 -501.1503,181.714 -310.6596,65.6131 -601.2336,62.9174 -601.2336,62.9174 0,0 -290.5745,2.6957 -601.2343,-62.9174 -315.6374,-66.6625 -501.15,-181.714 -501.15,-181.714 z"
       style="fill:none;stroke:#ffffff;stroke-width:159.4488189;stroke-linecap:round;stroke-linejoin:miter;stroke-miterlimit:4;stroke-opacity:1;stroke-dasharray:none" />
    <path
       style="fill:none;stroke:#ff0000;stroke-width:65.94803149999999903;stroke-linecap:round;stroke-linejoin:miter;stroke-miterlimit:4;stroke-opacity:1;stroke-dasharray:none"
       d="m 2440.9341,-3555.2196 -650.9107,603.9204 c 0,0 551.5147,578.2438 302.8083,1295.5941 -215.6263,621.9387 -20.9275,1055.66655 211.1262,1288.55774 333.9228,335.127805 414.7103,237.81192 859.4799,456.147805 355.9609,174.740195 379.8806,290.578005 379.8806,290.578005 0,0 23.9191,-115.83781 379.8803,-290.578005 444.7697,-218.335885 525.557,-121.02 859.4798,-456.147805 232.0536,-232.89119 426.752,-666.61904 211.1257,-1288.55774 -248.7061,-717.3503 302.8086,-1295.5941 302.8086,-1295.5941 l -650.9105,-603.9204 c 0,0 -185.5124,115.0515 -501.1503,181.714 -310.6596,65.6131 -601.2336,62.9174 -601.2336,62.9174 0,0 -290.5745,2.6957 -601.2343,-62.9174 -315.6374,-66.6625 -501.15,-181.714 -501.15,-181.714 z"
       id="path3170"
       inkscape:connector-curvature="0"
       sodipodi:nodetypes="ccssscsssccscsc" />
    <g
       id="g3925"
       transform="matrix(1.1290989,0,0,1.1290989,-457.42629,224.51663)">
      <path
         sodipodi:nodetypes="ccccccccc"
         inkscape:connector-curvature="0"
         id="path3943"
         d="m 3015.9637,-2896.3764 0,175.7811 439.4526,0 0,949.2178 175.7811,0 0,-949.2178 439.4526,0 0,-175.7811 z"
         style="fill:#ff0000;fill-opacity:1;stroke:none" />
      <path
         sodipodi:nodetypes="ccccccc"
         inkscape:connector-curvature="0"
         id="path3967"
         d="m 4058.9314,-2461.8986 234.3748,0 -749.9993,1371.0924 -749.9993,-1371.0924 234.3747,0 515.6246,960.9365 z"
         style="fill:#ff0000;fill-opacity:1;stroke:none" />
      <path
         sodipodi:nodetypes="ccccccccccc"
         inkscape:connector-curvature="0"
         id="path3969"
         d="m 2476.9017,-1794.815 867.1865,1312.49865 199.2187,-210.93709 199.2184,210.93709 867.1867,-1312.49865 -234.3748,0 -644.5306,960.93667 -187.4997,-210.93737 -187.4998,210.93737 -644.5307,-960.93667 z"
         style="fill:#ff0000;fill-opacity:1;stroke:none" />
      <text
         transform="scale(1.007591,0.99246619)"
         sodipodi:linespacing="125%"
         id="text3971"
         y="-704.04999"
         x="2447.0249"
         style="font-size:471.20007324px;font-style:normal;font-weight:normal;line-height:125%;letter-spacing:0px;word-spacing:0px;fill:#ff0000;fill-opacity:1;stroke:none;font-family:Sans"
         xml:space="preserve"><tspan
           style="font-size:435.86001587px;font-style:normal;font-variant:normal;font-weight:bold;font-stretch:normal;fill:#ff0000;fill-opacity:1;stroke:none;font-family:Arial;-inkscape-font-specification:Arial Bold"
           y="-704.04999"
           x="2447.0249"
           id="tspan3973"
           sodipodi:role="line">19</tspan></text>
      <text
         transform="scale(1.0271708,0.97354792)"
         sodipodi:linespacing="125%"
         id="text3975"
         y="-717.51733"
         x="4024.1633"
         style="font-size:444.6265564px;font-style:normal;font-weight:normal;line-height:125%;letter-spacing:0px;word-spacing:0px;fill:#ff0000;fill-opacity:1;stroke:none;font-family:Sans"
         xml:space="preserve"><tspan
           style="font-style:normal;font-variant:normal;font-weight:bold;font-stretch:normal;fill:#ff0000;fill-opacity:1;stroke:none;font-family:Arial;-inkscape-font-specification:Arial Bold"
           y="-717.51733"
           x="4024.1633"
           id="tspan3977"
           sodipodi:role="line">07</tspan></text>
    </g>
  </g>
</svg>
